subject01_walk1_grf.mot 
version=1 
nRows=34 
nColumns=19 
inDegrees=yes 
endheader	
time	ground_force_vx	ground_force_vy	ground_force_vz	ground_force_px	ground_force_py	ground_force_pz	1_ground_force_vx	1_ground_force_vy	1_ground_force_vz	1_ground_force_px	1_ground_force_py	1_ground_force_pz	ground_torque_x	ground_torque_y	ground_torque_z	1_ground_torque_x	1_ground_torque_y	1_ground_torque_z
0.8333325	-27.83143923630013	746.617537414918	-33.860386988922016	0.7344341115877403	-0.0075	0.11573184819866142	-0.42714671904825	11.458812057218724	-0.5196767973521742	0.2601373559197994	-0.0075	-0.06914046271497788	-0.002432816114984454	3.041535173534381	-0.00440638131631791	-3.733796922036092e-05	0.04668036601393424	-6.762752390058997e-05
0.84999916	-17.704440794678575	732.1774256404277	-32.17580315767929	0.7164194085190013	-0.0075	0.1160056351922287	-0.0	0.0	-0.0	0.2805912785158106	-0.0075	-0.07001586499966976	-0.0020590536065114838	1.5834668442888788	-0.004522138993226038	-0.0	0.0	-0.0
0.86666582	-4.0015507037218825	700.9871785635851	-31.311111396703193	0.6989514103908246	-0.0075	0.11628452957392243	-0.0	0.0	-0.0	0.3067239968153949	-0.0075	-0.07041750896676713	-0.0017679948504416198	0.07618356096114054	-0.004367472182426192	-0.0	0.0	-0.0
0.88333248	6.673578579403943	668.2787159394053	-30.4538397141243	0.6807575426895303	-0.0075	0.1164570539745926	0.0	0.0	-0.0	0.3367703038491281	-0.0075	-0.0699783310634614	-0.0015835293026565441	-0.9529450442287308	-0.0041319244598318535	-0.0	-0.0	-0.0
0.89999914	16.401991869584098	637.681999892728	-29.34395622246901	0.6628958747113278	-0.0075	0.11652935955645224	0.0	0.0	-0.0	0.3696458712912455	-0.0075	-0.06879979307475606	-0.0014755952314190913	-1.1360669356592117	-0.003913755641321261	-0.0	-0.0	-0.0
0.9166658	21.123550172126418	612.0921124060795	-28.817528623123234	0.645352073432282	-0.0075	0.11661141611323927	0.0	0.0	-0.0	0.4048438396156974	-0.0075	-0.06713244251551805	-0.0013759585613450434	-0.6261276146182406	-0.0037678367118995373	-0.0	-0.0	-0.0
0.93333246	23.2525641739976	593.3507731064499	-28.884465661779043	0.6280115430605799	-0.0075	0.11677065547041623	0.0	0.0	-0.0	0.4423152446590795	-0.0075	-0.0652768901257634	-0.001268018459909228	0.38285103642118207	-0.0036732359747842667	-0.0	0.0	-0.0
0.94999912	21.973973394934216	582.2402796426178	-31.378849474334615	0.6104977535052	-0.0075	0.116737791190369	0.0	0.0	-0.0	0.48188655754127124	-0.0075	-0.06358458206712853	-0.0011719506163692375	1.3759813456739904	-0.003584645906351821	-0.0	0.0	-0.0
0.96666578	21.11141977225189	578.6522207534545	-32.635118783422314	0.5937042257342723	-0.0075	0.11678701725210475	0.0	0.0	-0.0	0.5234432664204376	-0.0075	-0.06252908086907014	-0.0010357221763365443	2.2104007214313692	-0.0035067766643433512	-0.0	0.0	-0.0
0.98333244	24.778225776926593	581.3258794456126	-34.680930794317455	0.5772572043798544	-0.0075	0.1168251404228407	0.0	0.0	-0.0	0.5666940044954499	-0.0075	-0.06240267870973757	-0.0008931401087105053	2.5267940135480442	-0.003454414801071852	-0.0	0.0	-0.0
0.9999991	28.82756098021509	588.8410582507646	-37.91340117093898	0.5609160220109847	-0.0075	0.11661005481194409	0.0	0.0	-0.0	0.6107912872251019	-0.0075	-0.06333299237476013	-0.00073223885307144	2.095962423467623	-0.003469621574150662	-0.0	0.0	-0.0
1.01666576	34.15828666899288	599.5362053570161	-40.26519867939741	0.5447927118038746	-0.0075	0.11638628089357811	0.0	0.0	-0.0	0.6545557338027698	-0.0075	-0.06549655202587724	-0.0005631644388415837	1.2232348418211156	-0.0035855041546338333	-0.0	0.0	-0.0
1.03333242	40.143360582957705	611.832185808815	-41.1554320440462	0.5285667715045709	-0.0075	0.11625630952744823	0.0	0.0	-0.0	0.6967030987127206	-0.0075	-0.0690143095389205	-0.00040754893242791454	0.3514055890159662	-0.0038313925474367286	-0.0	0.0	-0.0
1.04999908	47.819984090820014	624.5025083529076	-40.03932499810868	0.5128612653385674	-0.0075	0.11620766061931632	0.0	0.0	-0.0	0.7354559835811986	-0.0075	-0.07331491715524152	-0.0003353736701994197	-0.021819542634983254	-0.00420428839589473	-0.0	-0.0	-0.0
1.06666574	51.292882602389476	637.2192480768072	-34.098974322766736	0.49710469135526925	-0.0075	0.116235423856979	0.0	0.0	-0.0	0.7676568236647675	-0.0075	-0.07739568082355862	-0.0004728607615726495	0.6380367506481573	-0.004724132490978896	-0.0	0.0	-0.0
1.0833324	52.94759519022067	649.194376598084	-27.253304931766	0.48095804897752226	-0.0075	0.11620532974044641	0.0	0.0	-0.0	0.7880602617772681	-0.0075	-0.07937226690701052	-0.0008874880356018808	2.077389206506046	-0.005407318046982213	-0.0	0.0	-0.0
1.09999906	53.530631999375	661.8629664619048	-16.173753257303183	0.4650797891316805	-0.0075	0.11629460884395215	0.0	0.0	-0.0	0.792104128135835	-0.0075	-0.0766575998484213	-0.0015101897809058954	4.063963235575845	-0.006103714376794979	-0.0	0.0	-0.0
1.11666572	54.37404482681832	675.8045545283886	-6.014736793111091	0.4490625476244123	-0.0075	0.11611291640652668	0.0	0.0	-0.0	0.7853899790847411	-0.0075	-0.06915628124236027	-0.002135064947388904	5.943195583906619	-0.006752434720445089	-0.0	0.0	-0.0
1.13333238	63.04556498097939	694.263611904853	1.2355866484378382	0.43313288648045073	-0.0075	0.11584918755035307	0.0	0.0	0.0	0.7851994422935431	-0.0075	-0.061937705339189734	-0.0024363223911970573	6.941945199888658	-0.006906221529028625	-0.0	0.0	-0.0
1.14999904	73.60342635658289	712.7303331511017	3.7888333744760483	0.4181603805815115	-0.0075	0.11560079528399222	0.0	0.0	0.0	0.7960496361506592	-0.0075	-0.05784618085159973	-0.0023680842009287835	8.74701688571192	-0.0072707290767136295	-0.0	0.0	-0.0
1.1666657	81.46264000197662	731.4166064071076	0.010555216503483676	0.40293762611597006	-0.0075	0.11540603778653571	0.0	0.0	0.0	0.8120079362723528	-0.0075	-0.05598398708377164	-0.0019831600300472614	11.569615632225839	-0.007890299754163024	-0.0	0.0	-0.0
1.18333236	95.78903422116625	752.5965047873422	-7.002936014552581	0.38876641599644224	-0.0075	0.11542752387502701	0.0	0.0	-0.0	0.8268151573293806	-0.0075	-0.05461572565745755	-0.001337456626666342	14.358857447204455	-0.00821552659284958	-0.0	0.0	-0.0
1.19999902	109.35540191102787	763.6732971503293	-15.567142395347885	0.3753138534901137	-0.0075	0.11546421819096388	1.6783465899806354	11.720577600495021	-0.23891879046114442	0.8370417783237892	-0.0075	-0.0528771967669652	-0.000612009091785195	15.900647482762706	-0.008031633101964381	-9.392891016673628e-06	0.2440373041918083	-0.0001232665583326629
1.21666568	125.65394981694381	759.0216236944034	-19.63871348810102	0.3628198049314213	-0.0075	0.11551313594244202	6.144682168698683	37.11738981198991	-0.9603649766865062	0.8410934713683161	-0.0075	-0.05080738873212252	-7.293370610652556e-05	16.191367133668354	-0.007289437059161377	-3.566576650099435e-06	0.7917841425442402	-0.0003564653079551695
1.23333234	138.47359818908058	736.7094249607655	-20.10186788877589	0.35090325315889836	-0.0075	0.11537030456409832	14.086299013215049	74.9421505728547	-2.044872997513918	0.8391823382303422	-0.0075	-0.04856584202218103	0.0001653581192109767	15.216891838038437	-0.0060913158100186025	1.6821140938997818e-05	1.5479462604104095	-0.0006196422784268518
1.249999	143.244072341087	696.459297118087	-16.06684566549434	0.33950380835269983	-0.0075	0.11495500058324128	25.291003987369976	122.96602974615463	-2.8367432672739104	0.8330408099163484	-0.0075	-0.04651534172319531	0.00016813050226432185	13.824249683901655	-0.004611103075924583	2.968492261962743e-05	2.4407931732451176	-0.0008141309051985979
1.26666566	139.41264284228578	640.0702119443716	-7.678142165911762	0.32846692750866313	-0.0075	0.11447551284292237	38.77982034369914	178.0456013206527	-2.135796063376293	0.8255577761006685	-0.0075	-0.044973345864384576	0.00015416357052734186	12.592509787495512	-0.0030736595989991904	4.28830229935227e-05	3.5028047476855533	-0.0008549867832411621
1.28333232	126.20587445622814	572.1500426028548	5.404837174454151	0.31732648152845044	-0.0075	0.11392690390582241	52.26346796951194	236.9346558087537	2.2382122525166817	0.8196970245408575	-0.0075	-0.04410430338543996	0.00019104475723689905	11.848178329991722	-0.0017445361527853858	7.911407922661182e-05	4.906482295809089	-0.0007224347498529231
1.29999898	105.72527013156198	498.3597851381296	13.66448158438848	0.3058112087221452	-0.0075	0.11329028597437565	63.03561890692836	297.13253468555337	8.147049921389756	0.8173446917016981	-0.0075	-0.04398687872485767	0.0003448944163379724	10.983184658894043	-0.0008398572688550711	0.00020563326974104107	6.548404574241766	-0.0005007404820993461
1.31666564	81.29440186593882	424.38534312122016	17.892450388950476	0.2942672594917743	-0.0075	0.11239958700328197	68.55036505110384	357.8569929239695	15.087558031904532	0.8184363887256527	-0.0075	-0.04448638562296063	0.0005915342828426432	9.606416180213424	-0.00042950786279784714	0.000498802993790104	8.100475812251133	-0.00036217648585034983
1.3333323	57.09633007562077	354.1026045896087	19.070652192622198	0.2823846068228136	-0.0075	0.11156879747207067	67.71097424174933	419.93298529954	22.616032198177365	0.820655748399282	-0.0075	-0.045425456455447266	0.0008578981973813352	7.415484043616562	-0.0002662390695331817	0.0010173880294582	8.794079206183815	-0.0003157349475077024
1.34999896	36.50853768198149	288.7984014104978	17.227396333578124	0.270056156583589	-0.0075	0.111068141862096	61.233237262806604	484.38152162462825	28.894316619945762	0.8213992007235642	-0.0075	-0.046729520270255294	0.001033991238653572	4.760787285016494	-0.0002938099084574851	0.0017342417654647917	7.9849382059759835	-0.0004927869746922227
1.36666562	19.4514853655579	228.27436717213226	14.211914199357977	0.2572097184038409	-0.0075	0.11111356468507502	46.971466215461014	551.2371689859385	34.318944549817786	0.8183267161769542	-0.0075	-0.04832259439321307	0.0010383533541924543	2.406660385172108	-0.0003960186444379953	0.0025074167128913546	5.811605892800555	-0.0009563062166372731
1.38333228	7.437060788181754	171.62949946031273	10.868303322977546	0.24492605220820948	-0.0075	0.11172012160443456	26.736077946467613	617.0044599845213	39.07132307574185	0.8106183701647776	-0.0075	-0.05002455762593197	0.0008691723155976046	0.8647405494221575	-0.0004741893741940776	0.00312465629105214	3.1087241843661815	-0.0017047008799479131
